<?xml version="1.0"?><svg width="100%" height="100%" viewBox="-8 -6 376 154" version="1.1" xmlns="http://www.w3.org/2000/svg" xmlns:xlink="http://www.w3.org/1999/xlink" xml:space="preserve" xmlns:serif="http://www.serif.com/" style="fill-rule:evenodd;clip-rule:evenodd;stroke-linejoin:round;stroke-miterlimit:2;"><g id="GSI-Logo"><path d="M111.807,16.134c1.93,1.458 3.134,3.681 3.301,6.094c0.167,2.413 -0.719,4.78 -2.429,6.491c-7.169,7.213 -19.143,19.187 -28.628,28.673c-2.401,2.401 -3.119,6.011 -1.82,9.147c1.299,3.136 4.36,5.182 7.755,5.182l40.504,0c2.432,-0 4.745,1.055 6.339,2.892c1.594,1.837 2.314,4.275 1.971,6.683c-4.675,33.975 -33.82,60.147 -69.078,60.147c-38.48,0 -69.721,-31.241 -69.721,-69.721c0,-38.48 31.241,-69.721 69.721,-69.721c15.279,-0 30.041,5.015 42.086,14.134Z" style="fill:#298937;"></path><path d="M276.887,67.19c2.261,0.07 4.398,1.049 5.927,2.716c1.529,1.667 2.321,3.88 2.195,6.138c-0.374,5.184 -1.288,10.414 -2.836,15.605c-10.998,36.875 -49.865,57.884 -86.74,46.885c-4.243,-1.266 -8.277,-2.9 -12.075,-4.859c-2.028,-1.058 -3.534,-2.901 -4.165,-5.1c-0.631,-2.199 -0.333,-4.56 0.825,-6.533c4.823,-8.3 12.924,-22.099 18.789,-32.09c1.499,-2.554 1.542,-5.709 0.112,-8.302c-1.43,-2.593 -4.12,-4.241 -7.08,-4.337c-11.827,-0.381 -28.29,-0.911 -38.004,-1.224c-2.263,-0.073 -4.4,-1.057 -5.927,-2.728c-1.527,-1.672 -2.314,-3.889 -2.182,-6.149c0.384,-5.122 1.294,-10.29 2.824,-15.418c10.998,-36.875 49.865,-57.884 86.74,-46.885c4.178,1.246 8.152,2.85 11.9,4.768c2.034,1.053 3.546,2.895 4.183,5.094c0.637,2.2 0.343,4.565 -0.814,6.541c-4.81,8.301 -12.878,22.087 -18.722,32.072c-1.496,2.556 -1.534,5.711 -0.101,8.302c1.433,2.591 4.126,4.236 7.086,4.327c11.846,0.366 28.344,0.876 38.068,1.176Z" style="fill:#298937;"></path><path d="M353.811,141.106l-22.55,-34.833c-0.874,-1.351 -2.374,-2.166 -3.983,-2.166c-1.609,0 -3.108,0.815 -3.983,2.166l-22.55,34.833c-0.288,0.211 -0.644,0.336 -1.029,0.336c-0.961,0 -1.741,-0.78 -1.741,-1.741l-0,-132.97c0,-2.62 2.124,-4.745 4.745,-4.745l49.117,0c2.62,0 4.745,2.124 4.745,4.745l0,132.97c0,0.961 -0.78,1.741 -1.741,1.741c-0.385,-0 -0.74,-0.125 -1.029,-0.336Z" style="fill:#298937;"></path><g transform="matrix(1.161916,0,0,1.161916,-1183.130599,-533.736482)"><g transform="matrix(50,0,0,50,1334.840855,496.224053)"><path d="M0.388,0.01c-0.068,0 -0.128,-0.015 -0.179,-0.045c-0.051,-0.03 -0.091,-0.073 -0.12,-0.129c-0.029,-0.056 -0.043,-0.122 -0.043,-0.198c0,-0.079 0.015,-0.146 0.045,-0.202c0.03,-0.056 0.07,-0.099 0.122,-0.128c0.051,-0.03 0.109,-0.044 0.173,-0.044c0.041,0 0.079,0.006 0.114,0.018c0.035,0.012 0.067,0.029 0.094,0.051c0.028,0.022 0.05,0.048 0.068,0.078c0.017,0.03 0.029,0.063 0.034,0.099l-0.152,0c-0.005,-0.017 -0.012,-0.033 -0.021,-0.047c-0.009,-0.014 -0.021,-0.026 -0.034,-0.035c-0.013,-0.01 -0.028,-0.017 -0.045,-0.022c-0.017,-0.005 -0.035,-0.008 -0.056,-0.008c-0.037,0 -0.07,0.009 -0.099,0.028c-0.029,0.019 -0.051,0.046 -0.067,0.082c-0.016,0.036 -0.024,0.08 -0.024,0.131c0,0.051 0.008,0.095 0.024,0.131c0.016,0.036 0.038,0.063 0.067,0.082c0.029,0.019 0.063,0.028 0.102,0.028c0.035,0 0.065,-0.006 0.09,-0.019c0.025,-0.013 0.044,-0.031 0.058,-0.054c0.013,-0.023 0.02,-0.051 0.02,-0.083l0.031,0.005l-0.189,0l0,-0.113l0.302,0l0,0.091c0,0.064 -0.013,0.118 -0.04,0.164c-0.027,0.046 -0.064,0.081 -0.111,0.106c-0.047,0.025 -0.101,0.037 -0.162,0.037Z" style="fill:#298937;fill-rule:nonzero;"></path></g><g transform="matrix(50,0,0,50,1372.36527,496.224053)"><rect x="0.062" y="-0.728" width="0.146" height="0.728" style="fill:#298937;fill-rule:nonzero;"></rect></g><g transform="matrix(50,0,0,50,1385.915074,496.224053)"><path d="M0.307,0.011c-0.055,0 -0.102,-0.012 -0.142,-0.035c-0.04,-0.024 -0.071,-0.056 -0.092,-0.099c-0.022,-0.042 -0.032,-0.091 -0.032,-0.147c0,-0.056 0.011,-0.106 0.032,-0.148c0.022,-0.042 0.052,-0.075 0.092,-0.099c0.04,-0.024 0.087,-0.035 0.142,-0.035c0.055,0 0.102,0.012 0.142,0.035c0.04,0.024 0.071,0.056 0.092,0.099c0.022,0.042 0.032,0.092 0.032,0.148c0,0.056 -0.011,0.105 -0.032,0.147c-0.022,0.042 -0.052,0.075 -0.092,0.099c-0.04,0.024 -0.087,0.035 -0.142,0.035Zm0,-0.115c0.026,0 0.048,-0.007 0.065,-0.022c0.018,-0.014 0.031,-0.034 0.039,-0.059c0.009,-0.025 0.013,-0.054 0.013,-0.085c0,-0.032 -0.004,-0.061 -0.013,-0.086c-0.009,-0.025 -0.022,-0.045 -0.039,-0.059c-0.018,-0.014 -0.039,-0.022 -0.065,-0.022c-0.026,0 -0.048,0.007 -0.065,0.022c-0.017,0.014 -0.031,0.034 -0.039,0.059c-0.009,0.025 -0.013,0.054 -0.013,0.086c0,0.032 0.004,0.06 0.013,0.085c0.009,0.025 0.022,0.045 0.039,0.059c0.017,0.014 0.039,0.022 0.065,0.022Z" style="fill:#298937;fill-rule:nonzero;"></path></g><g transform="matrix(50,0,0,50,1416.579137,496.224053)"><path d="M0.368,0.009c-0.03,0 -0.055,-0.005 -0.075,-0.015c-0.021,-0.01 -0.037,-0.022 -0.05,-0.037c-0.013,-0.015 -0.023,-0.03 -0.03,-0.044l-0.007,0l0,0.087l-0.144,-0l0,-0.728l0.146,0l0,0.274l0.005,0c0.007,-0.015 0.016,-0.029 0.029,-0.045c0.012,-0.015 0.029,-0.028 0.05,-0.038c0.021,-0.01 0.046,-0.016 0.077,-0.016c0.04,0 0.077,0.01 0.111,0.031c0.033,0.021 0.06,0.052 0.08,0.094c0.02,0.042 0.03,0.094 0.03,0.156c0,0.061 -0.01,0.112 -0.029,0.154c-0.02,0.042 -0.046,0.073 -0.08,0.095c-0.034,0.022 -0.071,0.032 -0.113,0.032Zm-0.045,-0.117c0.026,0 0.047,-0.007 0.064,-0.021c0.017,-0.014 0.03,-0.033 0.039,-0.058c0.009,-0.025 0.013,-0.053 0.013,-0.085c0,-0.032 -0.004,-0.06 -0.013,-0.085c-0.009,-0.024 -0.022,-0.044 -0.039,-0.057c-0.017,-0.014 -0.039,-0.021 -0.065,-0.021c-0.025,0 -0.046,0.007 -0.064,0.02c-0.018,0.013 -0.031,0.032 -0.04,0.057c-0.009,0.024 -0.014,0.053 -0.014,0.086c0,0.033 0.005,0.062 0.014,0.086c0.009,0.025 0.023,0.044 0.04,0.057c0.018,0.014 0.039,0.021 0.064,0.021Z" style="fill:#298937;fill-rule:nonzero;"></path></g><g transform="matrix(50,0,0,50,1448.585973,496.224053)"><path d="M0.215,0.011c-0.035,0 -0.066,-0.006 -0.093,-0.018c-0.027,-0.012 -0.049,-0.03 -0.065,-0.055c-0.016,-0.024 -0.024,-0.054 -0.024,-0.09c0,-0.031 0.006,-0.056 0.017,-0.076c0.011,-0.02 0.026,-0.037 0.046,-0.049c0.019,-0.012 0.041,-0.022 0.066,-0.028c0.025,-0.007 0.05,-0.011 0.077,-0.014c0.031,-0.003 0.057,-0.006 0.076,-0.009c0.019,-0.003 0.034,-0.007 0.043,-0.013c0.009,-0.006 0.014,-0.015 0.014,-0.027l0,-0.002c0,-0.016 -0.003,-0.029 -0.01,-0.04c-0.007,-0.011 -0.016,-0.019 -0.029,-0.025c-0.013,-0.006 -0.028,-0.009 -0.047,-0.009c-0.019,0 -0.035,0.003 -0.049,0.009c-0.014,0.006 -0.025,0.013 -0.034,0.023c-0.009,0.009 -0.015,0.02 -0.019,0.032l-0.134,-0.022c0.009,-0.032 0.025,-0.059 0.047,-0.081c0.022,-0.022 0.049,-0.039 0.081,-0.051c0.032,-0.012 0.069,-0.018 0.109,-0.018c0.029,0 0.058,0.003 0.085,0.01c0.028,0.007 0.053,0.018 0.075,0.033c0.022,0.015 0.039,0.034 0.052,0.057c0.013,0.023 0.019,0.052 0.019,0.085l0,0.368l-0.139,-0l0,-0.076l-0.005,0c-0.009,0.017 -0.021,0.032 -0.035,0.045c-0.015,0.013 -0.032,0.023 -0.053,0.031c-0.021,0.007 -0.044,0.011 -0.071,0.011Zm0.041,-0.103c0.023,0 0.043,-0.005 0.061,-0.014c0.017,-0.009 0.031,-0.022 0.041,-0.037c0.01,-0.016 0.015,-0.033 0.015,-0.052l0,-0.059c-0.004,0.003 -0.011,0.006 -0.02,0.008c-0.009,0.003 -0.018,0.005 -0.029,0.007c-0.011,0.002 -0.021,0.004 -0.032,0.005c-0.01,0.002 -0.02,0.003 -0.028,0.004c-0.018,0.002 -0.034,0.007 -0.047,0.012c-0.014,0.006 -0.024,0.014 -0.032,0.023c-0.008,0.01 -0.011,0.022 -0.011,0.037c0,0.014 0.004,0.026 0.011,0.036c0.007,0.01 0.017,0.017 0.029,0.022c0.012,0.005 0.027,0.007 0.043,0.007Z" style="fill:#298937;fill-rule:nonzero;"></path></g><g transform="matrix(50,0,0,50,1477.614293,496.224053)"><rect x="0.062" y="-0.728" width="0.146" height="0.728" style="fill:#298937;fill-rule:nonzero;"></rect></g><g transform="matrix(50,0,0,50,1491.164098,496.224053)"></g><g transform="matrix(50,0,0,50,1334.840855,537.535878)"><path d="M0.333,0.011c-0.058,0 -0.109,-0.009 -0.152,-0.027c-0.043,-0.018 -0.077,-0.044 -0.101,-0.079c-0.024,-0.035 -0.037,-0.078 -0.038,-0.13l0.145,0c0.002,0.025 0.009,0.045 0.022,0.061c0.013,0.016 0.03,0.029 0.051,0.037c0.021,0.008 0.045,0.012 0.072,0.012c0.027,0 0.05,-0.004 0.07,-0.012c0.02,-0.008 0.035,-0.019 0.046,-0.033c0.011,-0.014 0.016,-0.03 0.016,-0.048c0,-0.017 -0.005,-0.031 -0.015,-0.042c-0.01,-0.011 -0.024,-0.021 -0.043,-0.029c-0.019,-0.008 -0.041,-0.015 -0.068,-0.021l-0.08,-0.02c-0.062,-0.015 -0.11,-0.039 -0.145,-0.071c-0.035,-0.032 -0.052,-0.075 -0.052,-0.127c0,-0.044 0.012,-0.082 0.036,-0.115c0.024,-0.033 0.056,-0.058 0.097,-0.077c0.041,-0.018 0.088,-0.027 0.141,-0.027c0.054,0 0.101,0.009 0.141,0.028c0.04,0.018 0.071,0.044 0.094,0.077c0.022,0.033 0.034,0.07 0.035,0.113l-0.144,0c-0.003,-0.029 -0.015,-0.052 -0.037,-0.068c-0.022,-0.016 -0.052,-0.024 -0.089,-0.024c-0.025,0 -0.047,0.004 -0.065,0.011c-0.018,0.007 -0.031,0.017 -0.041,0.03c-0.009,0.013 -0.014,0.027 -0.014,0.044c0,0.018 0.005,0.033 0.016,0.044c0.011,0.012 0.025,0.021 0.043,0.029c0.018,0.007 0.037,0.014 0.057,0.018l0.066,0.016c0.031,0.007 0.059,0.016 0.086,0.028c0.026,0.012 0.05,0.026 0.069,0.043c0.02,0.017 0.035,0.037 0.046,0.061c0.011,0.023 0.017,0.05 0.017,0.081c0,0.044 -0.011,0.083 -0.033,0.115c-0.022,0.033 -0.054,0.058 -0.096,0.076c-0.042,0.018 -0.092,0.027 -0.151,0.027Z" style="fill:#298937;fill-rule:nonzero;"></path></g><g transform="matrix(50,0,0,50,1367.580113,537.535878)"><path d="M0.307,0.011c-0.055,0 -0.102,-0.012 -0.142,-0.035c-0.04,-0.024 -0.071,-0.056 -0.092,-0.099c-0.022,-0.042 -0.032,-0.091 -0.032,-0.147c0,-0.056 0.011,-0.106 0.032,-0.148c0.022,-0.042 0.052,-0.075 0.092,-0.099c0.04,-0.024 0.087,-0.035 0.142,-0.035c0.055,0 0.102,0.012 0.142,0.035c0.04,0.024 0.071,0.056 0.092,0.099c0.022,0.042 0.032,0.092 0.032,0.148c0,0.056 -0.011,0.105 -0.032,0.147c-0.022,0.042 -0.052,0.075 -0.092,0.099c-0.04,0.024 -0.087,0.035 -0.142,0.035Zm0,-0.115c0.026,0 0.048,-0.007 0.065,-0.022c0.018,-0.014 0.031,-0.034 0.039,-0.059c0.009,-0.025 0.013,-0.054 0.013,-0.085c0,-0.032 -0.004,-0.061 -0.013,-0.086c-0.009,-0.025 -0.022,-0.045 -0.039,-0.059c-0.018,-0.014 -0.039,-0.022 -0.065,-0.022c-0.026,0 -0.048,0.007 -0.065,0.022c-0.017,0.014 -0.031,0.034 -0.039,0.059c-0.009,0.025 -0.013,0.054 -0.013,0.086c0,0.032 0.004,0.06 0.013,0.085c0.009,0.025 0.022,0.045 0.039,0.059c0.017,0.014 0.039,0.022 0.065,0.022Z" style="fill:#298937;fill-rule:nonzero;"></path></g><g transform="matrix(50,0,0,50,1398.244176,537.535878)"><path d="M0.25,0.007c-0.038,0 -0.071,-0.008 -0.099,-0.025c-0.028,-0.016 -0.05,-0.04 -0.066,-0.071c-0.016,-0.031 -0.023,-0.067 -0.023,-0.11l0,-0.347l0.146,0l0,0.322c0,0.034 0.009,0.061 0.026,0.08c0.018,0.019 0.042,0.029 0.073,0.029c0.021,0 0.039,-0.005 0.055,-0.014c0.016,-0.009 0.028,-0.022 0.037,-0.039c0.009,-0.017 0.014,-0.038 0.014,-0.062l0,-0.316l0.147,0l0,0.546l-0.138,-0l-0.002,-0.136l0.009,0c-0.014,0.046 -0.036,0.081 -0.066,0.106c-0.029,0.025 -0.067,0.037 -0.112,0.037Z" style="fill:#298937;fill-rule:nonzero;"></path></g><g transform="matrix(50,0,0,50,1429.372105,537.535878)"><path d="M0.334,-0.546l0,0.112l-0.324,0l0,-0.112l0.324,0Zm-0.249,-0.13l0.146,0l0,0.516c0,0.017 0.004,0.03 0.012,0.038c0.008,0.008 0.02,0.012 0.038,0.012c0.006,0 0.014,-0.001 0.024,-0.002c0.01,-0.001 0.018,-0.003 0.023,-0.004l0.021,0.11c-0.016,0.005 -0.033,0.008 -0.049,0.01c-0.016,0.002 -0.031,0.003 -0.046,0.003c-0.055,0 -0.097,-0.013 -0.126,-0.04c-0.029,-0.027 -0.043,-0.065 -0.043,-0.115l0,-0.529Z" style="fill:#298937;fill-rule:nonzero;"></path></g><g transform="matrix(50,0,0,50,1447.804723,537.535878)"><path d="M0.209,-0.316l0,0.316l-0.146,-0l0,-0.728l0.144,0l0,0.318l-0.012,0c0.014,-0.046 0.036,-0.081 0.065,-0.106c0.029,-0.025 0.067,-0.037 0.113,-0.037c0.038,0 0.071,0.008 0.099,0.025c0.028,0.016 0.05,0.04 0.066,0.071c0.016,0.031 0.023,0.067 0.023,0.11l0,0.347l-0.147,-0l0,-0.322c0,-0.034 -0.009,-0.061 -0.026,-0.08c-0.017,-0.019 -0.042,-0.029 -0.073,-0.029c-0.021,0 -0.039,0.005 -0.055,0.014c-0.016,0.009 -0.029,0.022 -0.038,0.039c-0.009,0.017 -0.014,0.038 -0.014,0.062Z" style="fill:#298937;fill-rule:nonzero;"></path></g><g transform="matrix(50,0,0,50,1478.932652,537.535878)"></g><g transform="matrix(50,0,0,50,1334.840855,578.847703)"><rect x="0.066" y="-0.728" width="0.149" height="0.728" style="fill:#298937;fill-rule:nonzero;"></rect></g><g transform="matrix(50,0,0,50,1348.878941,578.847703)"><path d="M0.209,-0.316l0,0.316l-0.146,-0l0,-0.546l0.138,0l0.002,0.136l-0.009,0c0.014,-0.046 0.036,-0.081 0.065,-0.106c0.029,-0.025 0.067,-0.037 0.113,-0.037c0.038,0 0.071,0.008 0.099,0.025c0.028,0.016 0.05,0.04 0.065,0.071c0.016,0.031 0.023,0.067 0.023,0.11l0,0.347l-0.146,-0l0,-0.322c0,-0.034 -0.009,-0.061 -0.026,-0.08c-0.017,-0.019 -0.042,-0.029 -0.073,-0.029c-0.021,0 -0.039,0.005 -0.055,0.014c-0.016,0.009 -0.029,0.022 -0.038,0.039c-0.009,0.017 -0.014,0.038 -0.014,0.062Z" style="fill:#298937;fill-rule:nonzero;"></path></g><g transform="matrix(50,0,0,50,1380.006871,578.847703)"><path d="M0.262,0.009c-0.042,0 -0.079,-0.011 -0.113,-0.032c-0.034,-0.022 -0.06,-0.053 -0.08,-0.095c-0.02,-0.042 -0.029,-0.093 -0.029,-0.154c0,-0.062 0.01,-0.114 0.03,-0.156c0.02,-0.042 0.047,-0.073 0.081,-0.094c0.034,-0.021 0.07,-0.031 0.111,-0.031c0.031,0 0.057,0.005 0.077,0.016c0.021,0.01 0.037,0.023 0.05,0.038c0.013,0.015 0.022,0.03 0.029,0.045l0.005,0l0,-0.274l0.146,0l0,0.728l-0.144,-0l0,-0.087l-0.007,0c-0.007,0.015 -0.017,0.029 -0.029,0.044c-0.013,0.015 -0.03,0.027 -0.05,0.037c-0.02,0.01 -0.046,0.015 -0.075,0.015Zm0.045,-0.117c0.025,0 0.046,-0.007 0.064,-0.021c0.018,-0.014 0.031,-0.033 0.04,-0.057c0.009,-0.025 0.014,-0.053 0.014,-0.086c0,-0.033 -0.005,-0.062 -0.014,-0.086c-0.009,-0.024 -0.022,-0.043 -0.04,-0.057c-0.018,-0.013 -0.039,-0.02 -0.064,-0.02c-0.026,0 -0.047,0.007 -0.064,0.021c-0.017,0.014 -0.031,0.033 -0.039,0.057c-0.009,0.024 -0.013,0.053 -0.013,0.085c0,0.032 0.004,0.06 0.013,0.085c0.009,0.025 0.022,0.044 0.04,0.058c0.017,0.014 0.039,0.021 0.064,0.021Z" style="fill:#298937;fill-rule:nonzero;"></path></g><g transform="matrix(50,0,0,50,1411.525426,578.847703)"><path d="M0.309,0.011c-0.056,0 -0.104,-0.011 -0.144,-0.034c-0.04,-0.023 -0.071,-0.055 -0.093,-0.097c-0.022,-0.042 -0.032,-0.092 -0.032,-0.149c0,-0.056 0.011,-0.105 0.032,-0.148c0.022,-0.042 0.052,-0.075 0.091,-0.099c0.039,-0.024 0.086,-0.036 0.139,-0.036c0.036,0 0.069,0.006 0.1,0.017c0.031,0.011 0.058,0.028 0.082,0.051c0.023,0.023 0.042,0.052 0.055,0.086c0.013,0.035 0.02,0.075 0.02,0.122l0,0.041l-0.458,0l0,-0.092l0.387,0l-0.068,0.025c0,-0.028 -0.004,-0.053 -0.013,-0.074c-0.009,-0.021 -0.022,-0.037 -0.039,-0.049c-0.017,-0.012 -0.038,-0.017 -0.064,-0.017c-0.025,0 -0.047,0.006 -0.064,0.018c-0.018,0.012 -0.031,0.028 -0.04,0.048c-0.009,0.02 -0.014,0.043 -0.014,0.068l0,0.065c0,0.032 0.005,0.058 0.016,0.08c0.011,0.021 0.025,0.038 0.045,0.048c0.019,0.011 0.041,0.016 0.067,0.016c0.017,0 0.033,-0.002 0.047,-0.007c0.014,-0.005 0.026,-0.012 0.036,-0.022c0.01,-0.01 0.018,-0.021 0.023,-0.035l0.132,0.024c-0.009,0.03 -0.024,0.056 -0.046,0.079c-0.022,0.023 -0.049,0.04 -0.082,0.052c-0.033,0.012 -0.07,0.019 -0.113,0.019Z" style="fill:#298937;fill-rule:nonzero;"></path></g><g transform="matrix(50,0,0,50,1440.309605,578.847703)"><path d="M0.021,-0l0.211,-0.337l-0,0.114l-0.2,-0.323l0.158,0l0.049,0.086c0.016,0.028 0.03,0.056 0.042,0.084c0.013,0.028 0.025,0.054 0.038,0.08l-0.056,0c0.013,-0.026 0.026,-0.052 0.039,-0.08c0.012,-0.028 0.027,-0.056 0.043,-0.084l0.051,-0.086l0.155,0l-0.204,0.324l0,-0.112l0.212,0.334l-0.157,-0l-0.061,-0.103c-0.016,-0.028 -0.03,-0.056 -0.043,-0.083c-0.013,-0.028 -0.026,-0.054 -0.039,-0.079l0.056,0c-0.013,0.025 -0.025,0.052 -0.037,0.079c-0.012,0.028 -0.026,0.055 -0.042,0.083l-0.06,0.103l-0.155,-0Z" style="fill:#298937;fill-rule:nonzero;"></path></g><g transform="matrix(50,0,0,50,1469.313512,578.847703)"></g></g></g></svg>